<svg width="305" height="305" viewBox="0 0 305 305" fill="none" xmlns="http://www.w3.org/2000/svg">
    <mask id="mask0_13_834" style="mask-type:alpha" maskUnits="userSpaceOnUse" x="0" y="0" width="305" height="305">
        <path d="M0 152.5C0 26.9162 26.9162 0 152.5 0C278.084 0 305 26.9162 305 152.5C305 278.084 278.084 305 152.5 305C26.9162 305 0 278.084 0 152.5Z" fill="#C4C4C4"/>
    </mask>
    <g mask="url(#mask0_13_834)">
        <rect width="305" height="305" transform="translate(-1)" fill="#FACA30"/>
        <path d="M240 146.538H239.983C239.983 119.451 218.727 96.8027 191.75 96.0208C176.611 95.5824 162.098 102.094 152.327 113.708C143.239 102.936 129.677 96.0469 114.505 96.0469C87.1563 96.0469 65 118.243 65 145.695V209H88.0391V146.538C88.0391 131.934 99.9394 119.633 114.488 119.772C128.742 119.97 140.228 131.561 140.349 145.869V208.991H164.028V146.408C164.028 131.848 175.903 119.564 190.417 119.685C204.661 119.849 216.169 131.397 216.338 145.695V209H240V146.538Z" fill="black"/>
    </g>
</svg>
